<svg xmlns="http://www.w3.org/2000/svg" xmlns:xlink="http://www.w3.org/1999/xlink" viewBox="0 0 825.3 547.21"><defs><style>.cls-1,.cls-112,.cls-115,.cls-31,.cls-32,.cls-33,.cls-34,.cls-35,.cls-36,.cls-37,.cls-38,.cls-39,.cls-41,.cls-43,.cls-44,.cls-53,.cls-60,.cls-72,.cls-78,.cls-80,.cls-81,.cls-82,.cls-83,.cls-86,.cls-87,.cls-88{fill:none;}.cls-2{fill:url(#linear-gradient);}.cls-3{fill:url(#linear-gradient-2);}.cls-4{fill:url(#linear-gradient-3);}.cls-5{fill:url(#linear-gradient-4);}.cls-6{fill:#cbf2f4;}.cls-7{fill:#ae876c;}.cls-8{fill:#bb9270;}.cls-9{fill:#ffc0b0;}.cls-10{fill:#f55d30;}.cls-11{fill:#3840ad;}.cls-12{clip-path:url(#clip-path);}.cls-13{fill:#2935a3;}.cls-14{fill:#f55432;}.cls-15{fill:#ffc5b5;}.cls-16{fill:#8e5251;}.cls-17{fill:#fff;}.cls-18{fill:#c1d4ea;}.cls-19{fill:#85b0dc;}.cls-20{fill:#5fbdf9;}.cls-21{fill:#d7dff1;}.cls-22{fill:#ffa886;}.cls-23{fill:#3c3a63;}.cls-24{fill:#f1f1f1;}.cls-25{fill:#b3b3b3;}.cls-26{fill:#e4e4e4;}.cls-27{fill:url(#linear-gradient-5);}.cls-28{fill:#2c4381;}.cls-29{fill:#486ed1;}.cls-30{fill:#f9f9f9;}.cls-31,.cls-34,.cls-35,.cls-36,.cls-37,.cls-38,.cls-39,.cls-41{stroke:#c0cedc;}.cls-112,.cls-115,.cls-31,.cls-32,.cls-33,.cls-34,.cls-35,.cls-36,.cls-37,.cls-38,.cls-39,.cls-41,.cls-43,.cls-44,.cls-53,.cls-60,.cls-72,.cls-78,.cls-80,.cls-81,.cls-82,.cls-83,.cls-86,.cls-87,.cls-88{stroke-miterlimit:10;}.cls-32,.cls-33,.cls-43{stroke:#8aafd7;}.cls-32{stroke-width:0.79px;}.cls-33{stroke-width:0.68px;}.cls-34{stroke-width:0.82px;}.cls-35{stroke-width:1.16px;}.cls-36{stroke-width:1.09px;}.cls-37{stroke-width:0.73px;}.cls-38{stroke-width:0.52px;}.cls-39{stroke-width:1.02px;}.cls-40{fill:#d2e6f3;}.cls-41{stroke-width:0.74px;}.cls-42{clip-path:url(#clip-path-2);}.cls-44{stroke:#c8c8c8;}.cls-45{fill:#dde8f2;}.cls-46{fill:#b8c9da;}.cls-47{fill:#93adcb;}.cls-48{fill:#d2eaf4;}.cls-49{fill:#b6c8d6;}.cls-50{fill:#b4c9da;}.cls-51{fill:#8ab2dc;}.cls-52{fill:#b9c9dd;}.cls-53{stroke:#151164;}.cls-112,.cls-53{stroke-width:3px;}.cls-54{fill:#151164;}.cls-55{fill:#c2d4e8;}.cls-56{fill:#91afd4;}.cls-57{fill:#2b4480;}.cls-58{fill:#f2f2f2;}.cls-59{fill:#88c5f6;}.cls-60{stroke:#e6eef2;}.cls-61{fill:#a9d4fb;}.cls-62{fill:#82e2ec;}.cls-63{fill:#f2b977;}.cls-64{fill:#26227a;}.cls-65{fill:#cfcad1;}.cls-66{fill:#fd81ae;}.cls-67{fill:#7ec579;}.cls-68{fill:#696890;}.cls-69{fill:#ec6290;}.cls-70{fill:#edf4fb;}.cls-71{fill:#536774;}.cls-72{stroke:#fff;}.cls-73{fill:#f8a87e;}.cls-74{fill:#8d5054;}.cls-75{fill:#34337a;}.cls-76{fill:#ba9370;}.cls-77{fill:#e23b14;}.cls-78,.cls-81{stroke:#2b4782;}.cls-115,.cls-78{stroke-width:2px;}.cls-79{fill:#1f0f0a;}.cls-80{stroke:#c6d7e9;}.cls-80,.cls-81,.cls-82,.cls-83,.cls-86,.cls-87,.cls-88{stroke-width:4px;}.cls-82{stroke:#c4d1e7;}.cls-83{stroke:#91b2dc;}.cls-84{fill:#84a8d0;}.cls-85{fill:#bfd0ea;}.cls-86{stroke:#88b3e8;}.cls-87{stroke:#274680;}.cls-88{stroke:#bfd9f4;}.cls-89{fill:#25408e;}.cls-90{clip-path:url(#clip-path-3);}.cls-91{fill:#f45728;}.cls-92{fill:#ffc3aa;}.cls-93{fill:#5951a2;}.cls-94{fill:#935051;}.cls-95{fill:#ffc0b1;}.cls-96{fill:#6b7bbc;}.cls-97{fill:#302851;}.cls-98{fill:#442516;}.cls-99{fill:#ff9f90;}.cls-100{fill:#32309f;}.cls-101{clip-path:url(#clip-path-4);}.cls-102{fill:#292999;}.cls-103{fill:#eb5323;}.cls-104{clip-path:url(#clip-path-5);}.cls-105{fill:#e04419;}.cls-106{fill:#fca884;}.cls-107{fill:#905050;}.cls-108{fill:#93abde;}.cls-109{fill:#cde9ee;}.cls-110{fill:#f9a983;}.cls-111{fill:#ffaf80;}.cls-112{stroke:#525777;}.cls-113{fill:#97d7ff;}.cls-114{fill:#fcfffc;opacity:0.43;}.cls-115{stroke:#8cb0dd;}.cls-116{fill:#51507c;}.cls-117{fill:#8cb0dd;}.cls-118{fill:#586282;}</style><linearGradient id="linear-gradient" x1="420.46" y1="525.54" x2="420.46" gradientUnits="userSpaceOnUse"><stop offset="0" stop-color="#e8f4fa" stop-opacity="0"/><stop offset="1" stop-color="#beedfc" stop-opacity="0.4"/></linearGradient><linearGradient id="linear-gradient-2" x1="412.65" y1="547.21" x2="412.65" y2="497.72" gradientUnits="userSpaceOnUse"><stop offset="0" stop-color="#e8f4fa" stop-opacity="0"/><stop offset="1" stop-color="#beedfc"/></linearGradient><linearGradient id="linear-gradient-3" x1="672.05" y1="519.96" x2="672.05" y2="494.96" xlink:href="#linear-gradient-2"/><linearGradient id="linear-gradient-4" x1="65.08" y1="498.63" x2="227.82" y2="498.63" gradientUnits="userSpaceOnUse"><stop offset="0" stop-color="#beedfc"/><stop offset="1" stop-color="#e8f4fa"/></linearGradient><clipPath id="clip-path"><path class="cls-1" d="M56.17,317.45s-5-3-12,0-25,57-26,61c7,5,22,10,31,10s12-2,12-2a124,124,0,0,1,2-21c2-10,9-23,9-29,.08-10.84-9-18-9-18Z"/></clipPath><linearGradient id="linear-gradient-5" x1="417.93" y1="494.98" x2="417.93" y2="453.73" gradientUnits="userSpaceOnUse"><stop offset="0" stop-color="#7a8fba"/><stop offset="1" stop-color="#bfd0e8"/></linearGradient><clipPath id="clip-path-2"><rect class="cls-1" x="301.05" y="341.48" width="106.13" height="38"/></clipPath><clipPath id="clip-path-3"><path class="cls-1" d="M262.39,336.93l-11-4.5s.37-28.75,25.37-28.75c14.38.13,31.88.88,31.88.88l3.75,9.5L299,316.68s4.5,20.13,5,30.5,4.63,21.25,2.75,22.25-26.75,8.5-41.12,3c.5-16.62,0-35.12-1.63-39A12.31,12.31,0,0,1,262.39,336.93Z"/></clipPath><clipPath id="clip-path-4"><path class="cls-1" d="M754,370.55s-7.12,13-7.12,25.87,10.5,108.13,10.5,108.13H764s-2.87-74.38,3.13-96.25c.75,23,4.5,96.37,4.5,96.37h7.62s2.13-83,3.5-91.37,7-23.13-4-43C765.17,370.3,754,370.55,754,370.55Z"/></clipPath><clipPath id="clip-path-5"><path class="cls-1" d="M748.54,348.92l4.5,23.25h26.5s3.63-20.87,3.25-27.5-21.25-9-21.25-9l-9.5,2.5Z"/></clipPath></defs><title>analytics</title><g id="Layer_2" data-name="Layer 2"><g id="Layer_1-2" data-name="Layer 1"><path id="bg" class="cls-2" d="M305.37,55.46a86.87,86.87,0,0,1,6-11,116.86,116.86,0,0,1,15.88-19.06C344.2,9.12,366.27-.58,390,0a92.17,92.17,0,0,1,9.54.74C464.68,9.2,510.35,19.4,556.9,44.67A224.34,224.34,0,0,1,604,78.31c7.22,6.81,13.2,14.78,20.23,21.77,6.65,6.63,14.61,12,22.38,17.19,16.06,10.82,34.44,21.93,54,24.5,33.7,4.43,58.53,41.24,42.12,101.54-4,14.88-6.64,34.21,8.34,43.79,14.3,9.14,30.52,5.59,41.73,20.92,35,47.92-35.09,102.05-67.38,127.89-111.71,89.39-186.64,85-274.88,66.78-21.85-4.5-44.25-7.46-66.6-6.82A167.94,167.94,0,0,0,361.62,498c-11.41,1.86-21.3,6.56-32.08,10.47-20.72,7.52-44.35,10.57-66.22,13.51-19.26,2.58-38.76,4.12-58.2,3.46-30.92-1.06-72.25-8.3-82.39-42.78-3-10.15-2.23-20.11-1.23-30.47,1.79-18.61-1.37-39-8.17-56.28C107.66,381.45,98.1,366.13,85,357.35,68.42,346.32,53.53,341,45,321c-9.69-22.73-7.1-54.53-.83-77.95,8.88-33.15,41.22-43.48,65.77-62.83,7.8-6.14,16.35-11.65,23.8-18.17s12.55-15,18.63-22.65c10.55-13.22,23.88-16.3,40.12-17.89a159,159,0,0,1,20.82-.63c18.64.6,39.14-13.5,54.21-23.4C276.25,91.75,284.87,85.62,292,78,298.28,71.37,301.61,63.32,305.37,55.46Z"/><ellipse class="cls-3" cx="412.65" cy="522.46" rx="412.65" ry="24.75"/><ellipse class="cls-4" cx="672.05" cy="507.46" rx="88.82" ry="12.5"/><ellipse class="cls-5" cx="146.45" cy="498.63" rx="81.37" ry="10.91"/><path class="cls-6" d="M319.24,195.58h-118s-31.7,3.13-12.13-16c.39,7,2.25,6.85,2.25,6.85s2.83-34,32.87-34,31.59,17.81,31.59,17.81,4.41-5,16.54-5,23.18,19.76,23.18,19.76,7.92-.69,9.49,2.64.1,6,1.37,6.16S319.24,195.58,319.24,195.58Z"/><path class="cls-7" d="M32.05,382s2.93,20.44,9.36,31.53,15.88,28,15.19,36-4.55,45.12-4.55,45.12l6.7.33s17.44-41.09,15.17-58-12.75-50.41-12.75-50.41Z"/><path class="cls-8" d="M19.92,378.2s0,18,4.5,30,11,30.25,9,38-10.83,43.33-10.83,43.33L28,492s20.75-38.17,21.34-55.25S48,386.2,48,386.2Z"/><path class="cls-9" d="M70.08,349.28s9.12,18.24,11.84,20.6,25.47,7.89,27.51,10.38,12.11,8.74,13.38,8.4,1.71-4.88-1.22-6.34-3-3.08-1.67-2.59,3.55-1,.32-1.9-9.49-2-12-3.08-13.34-4.52-18.55-12S79,345.55,79,345.55Z"/><path class="cls-10" d="M65.7,322.59c-2.73.64-3.52,9.15-1.68,15.9a58.85,58.85,0,0,0,5.62,13L81,347.34S68.43,322,65.7,322.59Z"/><path class="cls-11" d="M56.17,317.45s-5-3-12,0-25,57-26,61c7,5,22,10,31,10s12-2,12-2a124,124,0,0,1,2-21c2-10,9-23,9-29,.08-10.84-9-18-9-18Z"/><g class="cls-12"><path class="cls-13" d="M48.21,389.93c0-17.76-11-23.63-11-35s-5.17-25.69-5.17-25.69L11.78,364.34S4,387.35,6,389.93s43.41,9.5,43.41,9.5Z"/></g><polygon class="cls-14" points="56.17 317.45 56.17 324.45 60.17 321.45 63.17 324.45 63.17 318.45 56.17 317.45"/><path class="cls-15" d="M73.17,295.45s-1,21-5,20a28.05,28.05,0,0,0-5-1v4l-3,3-4-4v-6l-2-10,3-6Z"/><path class="cls-16" d="M56.67,312s-3,1-3-1-9-24,6-25,19,5,19,9-16,3-17,4,0,5-1,5c-2,0-2.5-3.5-4-3C54.17,302.45,60.67,309,56.67,312Z"/><g id="mobile"><rect class="cls-17" x="86.14" y="325.65" width="111.54" height="161.2"/><path class="cls-18" d="M191.68,310.29h-100a12.09,12.09,0,0,0-12.09,12.09V489.89A12.09,12.09,0,0,0,91.67,502h100a12.08,12.08,0,0,0,12.08-12.09V322.38A12.09,12.09,0,0,0,191.68,310.29ZM196.45,485H86.9V326.83H196.45Z"/><rect class="cls-19" x="104.09" y="380.77" width="13.86" height="30.04"/><rect class="cls-19" x="124.32" y="365.3" width="13.86" height="45.51"/><rect class="cls-19" x="144.56" y="345.18" width="13.86" height="65.63"/><rect class="cls-19" x="164.79" y="375.25" width="13.86" height="35.57"/><polygon class="cls-20" points="98.71 409.89 98.71 348.35 96.86 348.35 96.86 409.89 96.86 411.74 98.71 411.74 186.48 411.74 186.48 409.89 98.71 409.89"/><rect class="cls-21" x="96.05" y="461.66" width="91.24" height="8.26"/><rect class="cls-21" x="96.05" y="444.9" width="91.24" height="8.26"/><rect class="cls-21" x="96.05" y="428.15" width="91.24" height="8.26"/></g><path class="cls-9" d="M41.17,344.45s4,20,6,23S69.67,381.76,71,384.7s9.38,11.62,10.69,11.62,2.94-4.25.5-6.44-2.06-3.75-.94-2.93,3.69,0,.82-1.75-8.63-4.44-10.75-6.13-11.69-7.87-14.75-16.44-5.82-19.43-5.82-19.43Z"/><path class="cls-10" d="M44,317.55c-2.8-.1-5.8,7.9-5.8,14.9a58.49,58.49,0,0,0,2,14l12-1S46.78,317.65,44,317.55Z"/><polygon class="cls-22" points="22.59 489.53 20.73 497.13 25.48 498.01 28 491.95 22.59 489.53"/><polygon class="cls-22" points="52.05 494.57 51.41 500.85 56.67 501.35 58.76 494.9 52.05 494.57"/><path class="cls-23" d="M20.73,497.13s-3.48,9.82-.56,11.57,12.42,3.87,13.13,1.95-6.92-5.75-7.8-7.25,0-5.39,0-5.39Z"/><path class="cls-23" d="M51.41,500.85s-2.93,9.41,0,11.16,14.25,4.35,15,2.44-8.75-6.23-9.63-7.73-.06-5.37-.06-5.37Z"/><polygon class="cls-24" points="672.05 479.19 591.45 479.19 591.45 374.85 643.75 374.85 672.05 402.56 672.05 479.19"/><path class="cls-25" d="M672.05,402.57H648.79a5,5,0,0,1-5-5V374.85Z"/><rect class="cls-26" x="614.7" y="413.72" width="42.16" height="2.74"/><rect class="cls-26" x="614.7" y="419.1" width="42.16" height="2.74"/><rect class="cls-26" x="614.7" y="424.48" width="42.16" height="2.74"/><rect class="cls-26" x="614.7" y="429.86" width="42.16" height="2.74"/><rect class="cls-26" x="614.7" y="435.24" width="42.16" height="2.74"/><rect class="cls-26" x="614.7" y="440.62" width="42.16" height="2.74"/><rect class="cls-26" x="614.7" y="446" width="42.16" height="2.74"/><rect class="cls-26" x="614.7" y="451.38" width="42.16" height="2.74"/><rect class="cls-26" x="614.7" y="456.76" width="42.16" height="2.74"/><path class="cls-27" d="M380.3,453.73s-1.75,34.5-13.25,40.75c25,0,101.75.5,101.75.5s-14.5-1.5-14.5-40.5C408.3,454.48,380.3,453.73,380.3,453.73Z"/><rect class="cls-28" x="220.05" y="179.31" width="396.67" height="278" rx="13.33"/><path class="cls-29" d="M220.05,418H616.72a0,0,0,0,1,0,0v26a13.33,13.33,0,0,1-13.33,13.33h-370A13.33,13.33,0,0,1,220.05,444V418A0,0,0,0,1,220.05,418Z"/><rect class="cls-30" x="239.22" y="198" width="358.33" height="202.48"/><line class="cls-31" x1="311.93" y1="284.73" x2="359.43" y2="284.73"/><line class="cls-32" x1="359.43" y1="289.56" x2="388.8" y2="289.56"/><line class="cls-33" x1="368.22" y1="308.23" x2="390.47" y2="308.23"/><line class="cls-34" x1="311.93" y1="289.56" x2="343.56" y2="289.56"/><line class="cls-35" x1="311.93" y1="294.39" x2="375.47" y2="294.39"/><line class="cls-36" x1="311.93" y1="299.23" x2="368.06" y2="299.23"/><line class="cls-37" x1="311.93" y1="304.06" x2="337.39" y2="304.06"/><line class="cls-37" x1="357.51" y1="304.06" x2="382.97" y2="304.06"/><line class="cls-38" x1="339.68" y1="304.06" x2="352.64" y2="304.06"/><line class="cls-34" x1="311.93" y1="308.89" x2="343.56" y2="308.89"/><line class="cls-39" x1="312.68" y1="317.81" x2="362.05" y2="317.81"/><line class="cls-39" x1="312.68" y1="323.81" x2="362.05" y2="323.81"/><rect class="cls-40" x="301.05" y="341.48" width="106.13" height="38"/><line class="cls-41" x1="312.68" y1="328.48" x2="338.47" y2="328.48"/><g class="cls-42"><polyline class="cls-43" points="303.55 365.81 318.55 372.48 333.05 365.98 352.05 367.98 369.05 351.98 386.39 352.31 407.39 341.81"/><polyline class="cls-39" points="305.22 373.98 322.72 376.98 332.55 372.31 357.39 370.98 368.89 363.64 374.72 365.98 389.39 366.14 408.52 374.23"/></g><line class="cls-44" x1="440.47" y1="312.48" x2="451.43" y2="312.48"/><line class="cls-44" x1="440.47" y1="305.23" x2="451.43" y2="305.23"/><line class="cls-44" x1="440.47" y1="297.98" x2="451.43" y2="297.98"/><rect class="cls-45" x="431.97" y="293.89" width="4.17" height="4.17"/><rect class="cls-46" x="431.97" y="301.52" width="4.17" height="4.17"/><rect class="cls-47" x="431.97" y="308.96" width="4.17" height="4.17"/><rect class="cls-48" x="432.05" y="326.48" width="9.5" height="41.75"/><rect class="cls-49" x="441.55" y="342.48" width="9.5" height="25.75"/><rect class="cls-48" x="451.05" y="331.73" width="9.5" height="36.5"/><rect class="cls-19" x="460.55" y="336.98" width="9.5" height="31.25"/><rect class="cls-48" x="470.05" y="318.73" width="9.5" height="49.5"/><rect class="cls-50" x="479.55" y="303.1" width="9.5" height="65.13"/><rect class="cls-51" x="489.05" y="311.6" width="9.5" height="56.63"/><rect class="cls-48" x="498.55" y="306.73" width="9.5" height="61.5"/><rect class="cls-52" x="508.05" y="302.73" width="9.5" height="65.5"/><polyline class="cls-53" points="435.55 346.98 458.55 327.64 463.55 332.48 477.22 319.48"/><polygon class="cls-54" points="485.3 311.15 472.81 316.39 480.06 323.64 485.3 311.15"/><polygon class="cls-55" points="457.64 251.27 471.98 257.06 485.85 251.41 504.02 253.15 520.27 239.24 536.85 239.53 556.93 230.4 556.93 262.48 434.64 262.48 434.64 256.35 457.64 251.27"/><polygon class="cls-56" points="458.15 258.37 474.88 260.98 484.29 256.92 508.03 255.76 519.03 249.38 524.61 251.41 538.63 251.56 556.93 258.59 556.93 262.73 433.55 262.73 451.43 256.73 458.15 258.37"/><rect class="cls-57" x="345.68" y="494.48" width="142.25" height="3.38"/><rect class="cls-58" x="636.05" y="183.98" width="162.5" height="153.5" rx="24.83"/><path class="cls-59" d="M773.72,185.48a23.32,23.32,0,0,1,23.33,23.33V312.64A23.33,23.33,0,0,1,773.72,336H660.89a23.34,23.34,0,0,1-23.34-23.34V208.81a23.33,23.33,0,0,1,23.34-23.33H773.72m0-3H660.89a26.37,26.37,0,0,0-26.34,26.33V312.64A26.37,26.37,0,0,0,660.89,339H773.72a26.36,26.36,0,0,0,26.33-26.34V208.81a26.36,26.36,0,0,0-26.33-26.33Z"/><path class="cls-18" d="M797.05,227.14H637.55V208.81a23.33,23.33,0,0,1,23.34-23.33H773.72a23.32,23.32,0,0,1,23.33,23.33Z"/><rect class="cls-60" x="642.22" y="232.98" width="21.5" height="21.5"/><rect class="cls-60" x="663.72" y="232.98" width="21.5" height="21.5"/><rect class="cls-60" x="685.22" y="232.98" width="21.5" height="21.5"/><rect class="cls-60" x="706.72" y="232.98" width="21.5" height="21.5"/><rect class="cls-60" x="728.22" y="232.98" width="21.5" height="21.5"/><rect class="cls-60" x="749.72" y="232.98" width="21.5" height="21.5"/><rect class="cls-60" x="771.22" y="232.98" width="21.5" height="21.5"/><rect class="cls-61" x="695.25" y="232.98" width="11.47" height="11.47"/><rect class="cls-61" x="716.75" y="232.98" width="11.47" height="11.47"/><rect class="cls-61" x="738.25" y="232.98" width="11.47" height="11.47"/><rect class="cls-61" x="759.75" y="232.98" width="11.47" height="11.47"/><rect class="cls-61" x="781.25" y="232.98" width="11.47" height="11.47"/><rect class="cls-62" x="695.25" y="254.48" width="11.47" height="11.47"/><rect class="cls-62" x="673.75" y="254.48" width="11.47" height="11.47"/><rect class="cls-62" x="652.97" y="254.48" width="11.47" height="11.47"/><rect class="cls-62" x="716.75" y="254.48" width="11.47" height="11.47"/><rect class="cls-62" x="738.25" y="254.48" width="11.47" height="11.47"/><rect class="cls-62" x="759.75" y="254.48" width="11.47" height="11.47"/><rect class="cls-62" x="781.25" y="254.48" width="11.47" height="11.47"/><rect class="cls-61" x="695.25" y="275.98" width="11.47" height="11.47"/><rect class="cls-61" x="673.75" y="275.98" width="11.47" height="11.47"/><rect class="cls-61" x="652.97" y="275.98" width="11.47" height="11.47"/><rect class="cls-61" x="716.75" y="275.98" width="11.47" height="11.47"/><rect class="cls-63" x="738.25" y="275.98" width="11.47" height="11.47"/><rect class="cls-63" x="759.75" y="275.98" width="11.47" height="11.47"/><rect class="cls-63" x="781.25" y="275.98" width="11.47" height="11.47"/><rect class="cls-61" x="695.25" y="297.48" width="11.47" height="11.47"/><rect class="cls-61" x="673.75" y="297.48" width="11.47" height="11.47"/><rect class="cls-61" x="652.97" y="297.48" width="11.47" height="11.47"/><rect class="cls-61" x="716.75" y="297.48" width="11.47" height="11.47"/><rect class="cls-60" x="642.22" y="254.48" width="21.5" height="21.5"/><rect class="cls-60" x="663.72" y="254.48" width="21.5" height="21.5"/><rect class="cls-60" x="685.22" y="254.48" width="21.5" height="21.5"/><rect class="cls-60" x="706.72" y="254.48" width="21.5" height="21.5"/><rect class="cls-60" x="728.22" y="254.48" width="21.5" height="21.5"/><rect class="cls-60" x="749.72" y="254.48" width="21.5" height="21.5"/><rect class="cls-60" x="771.22" y="254.48" width="21.5" height="21.5"/><rect class="cls-60" x="642.22" y="275.98" width="21.5" height="21.5"/><rect class="cls-60" x="663.72" y="275.98" width="21.5" height="21.5"/><rect class="cls-60" x="685.22" y="275.98" width="21.5" height="21.5"/><rect class="cls-60" x="706.72" y="275.98" width="21.5" height="21.5"/><rect class="cls-60" x="728.22" y="275.98" width="21.5" height="21.5"/><rect class="cls-60" x="749.72" y="275.98" width="21.5" height="21.5"/><rect class="cls-60" x="771.22" y="275.98" width="21.5" height="21.5"/><rect class="cls-60" x="642.22" y="297.48" width="21.5" height="21.5"/><rect class="cls-60" x="663.72" y="297.48" width="21.5" height="21.5"/><rect class="cls-60" x="685.22" y="297.48" width="21.5" height="21.5"/><rect class="cls-60" x="706.72" y="297.48" width="21.5" height="21.5"/><rect class="cls-60" x="728.22" y="297.48" width="21.5" height="21.5"/><rect class="cls-60" x="749.72" y="297.48" width="21.5" height="21.5"/><rect class="cls-60" x="771.22" y="297.48" width="21.5" height="21.5"/><circle class="cls-64" cx="675.37" cy="206.54" r="6.94"/><circle class="cls-64" cx="758.74" cy="206.54" r="6.94"/><rect class="cls-65" x="670.3" y="177.73" width="10.12" height="30.63" rx="5.06"/><rect class="cls-65" x="753.68" y="177.73" width="10.12" height="30.63" rx="5.06"/><path class="cls-6" d="M768.6,141.21H622.53s-39.24,3.87-15-19.87c.48,8.72,2.78,8.48,2.78,8.48S613.81,87.68,651,87.68s39.12,22,39.12,22,5.45-6.18,20.47-6.18S739.29,128,739.29,128s9.81-.85,11.74,3.27.13,7.38,1.7,7.63S768.6,141.21,768.6,141.21Z"/><path class="cls-6" d="M205.72,90.23h89.2s24,2.36,9.17-12.13c-.3,5.32-1.7,5.18-1.7,5.18s-2.15-25.74-24.85-25.74S253.65,71,253.65,71s-3.33-3.77-12.5-3.77-17.52,14.94-17.52,14.94-6-.52-7.18,2-.07,4.51-1,4.66S205.72,90.23,205.72,90.23Z"/><path class="cls-20" d="M710.64,424.05s14.6,27.08,14.73,41.12-8,26.74-16.79,31c-7.43-5.49-19.41-22.95-14.87-44.93S710.64,424.05,710.64,424.05Z"/><path class="cls-17" d="M710,425.33l-.76,8.72c-.26,2.9-.51,5.8-.73,8.71-.44,5.81-.89,11.61-1.15,17.43s-.54,11.63-.51,17.45c0,2.91.1,5.81.32,8.71a42.47,42.47,0,0,0,1.31,8.61,38.47,38.47,0,0,1-1.79-8.56c-.32-2.91-.49-5.83-.6-8.75-.2-5.84,0-11.68.27-17.51s.79-11.65,1.4-17.45S709,431.09,710,425.33Z"/><path class="cls-17" d="M724.8,472a33.4,33.4,0,0,1-3.62,4.66,45.79,45.79,0,0,1-4.31,4,44.89,44.89,0,0,1-9.93,6.31c1.6-1.13,3.16-2.3,4.72-3.46s3.09-2.38,4.58-3.62,3-2.51,4.39-3.83S723.42,473.41,724.8,472Z"/><path class="cls-17" d="M722.27,450.52a32,32,0,0,1-7,7,30.18,30.18,0,0,1-4.23,2.63,20.87,20.87,0,0,1-4.66,1.72c1.48-.75,2.9-1.54,4.28-2.4s2.72-1.76,4-2.75,2.58-2,3.84-3S721,451.61,722.27,450.52Z"/><path class="cls-17" d="M707.44,450.52a32.31,32.31,0,0,1-5.69-5.64,24.54,24.54,0,0,1-2.24-3.36,8.26,8.26,0,0,1-1.21-3.85,12.94,12.94,0,0,0,1.87,3.45c.76,1.06,1.54,2.11,2.36,3.14C704.16,446.33,705.85,448.36,707.44,450.52Z"/><path class="cls-66" d="M692.27,419.1S706.1,448,706.23,463s-7.57,28.57-15.91,33.13c-7.05-5.87-18.4-24.52-14.09-48S692.27,419.1,692.27,419.1Z"/><path class="cls-17" d="M691.62,420.47l-.71,9.3-.67,9.31c-.42,6.2-.84,12.4-1.09,18.61s-.52,12.42-.49,18.63c0,3.11.09,6.21.29,9.31a51.21,51.21,0,0,0,1.23,9.22,46.15,46.15,0,0,1-1.71-9.18c-.31-3.11-.47-6.22-.58-9.34-.18-6.23,0-12.46.26-18.68s.74-12.44,1.32-18.63S690.73,426.63,691.62,420.47Z"/><path class="cls-17" d="M705.68,470.32a33.54,33.54,0,0,1-3.33,4.87,44.39,44.39,0,0,1-4,4.3,43.66,43.66,0,0,1-9.55,6.88c1.54-1.22,3-2.48,4.52-3.73s2.93-2.55,4.34-3.88,2.8-2.69,4.15-4.09S704.38,471.8,705.68,470.32Z"/><path class="cls-17" d="M703.29,447.37a32,32,0,0,1-6.49,7.36,29.22,29.22,0,0,1-4,2.84,19.25,19.25,0,0,1-4.53,1.93c1.43-.81,2.79-1.66,4.11-2.58s2.59-1.92,3.81-3,2.43-2.11,3.61-3.21S702.13,448.52,703.29,447.37Z"/><path class="cls-17" d="M689.23,447.37a34,34,0,0,1-5.48-6.14,25.61,25.61,0,0,1-2.1-3.58,9.08,9.08,0,0,1-1.07-4,14.84,14.84,0,0,0,1.75,3.63c.72,1.14,1.46,2.27,2.24,3.37C686.11,442.88,687.73,445.06,689.23,447.37Z"/><path class="cls-67" d="M685.72,464.29c-2.25-1-5.19,6-7.54,3.62s5.06-14.48-4.43-20.54c-9.49,6.06-1.83,18.2-4.17,20.54s-5.29-4.59-7.54-3.62c-10.86,5.19,11.84,31.7,11.84,31.7S696.58,469.48,685.72,464.29Z"/><path class="cls-17" d="M673.75,447.37q.15,6.08.22,12.15l.09,12.16,0,12.15q0,6.09-.16,12.16-.15-6.08-.22-12.16l-.09-12.15,0-12.16Q673.62,453.45,673.75,447.37Z"/><path class="cls-17" d="M687.14,475.66a21.15,21.15,0,0,0-3.36.52c-1.11.24-2.21.49-3.31.77-2.2.56-4.39,1.13-6.57,1.77l-.09,0-.09,0a55.92,55.92,0,0,0-6.59-2.88,26,26,0,0,0-3.43-1,11.63,11.63,0,0,0-3.57-.4,11.91,11.91,0,0,1,3.62.15,28.26,28.26,0,0,1,3.51.91c1.15.37,2.28.81,3.39,1.28s2.22,1,3.3,1.53l-.18,0c2.19-.6,4.39-1.18,6.62-1.66,1.11-.23,2.23-.45,3.35-.63A20.45,20.45,0,0,1,687.14,475.66Z"/><path class="cls-17" d="M678.74,456.76c-.75.63-1.53,1.21-2.32,1.78s-1.59,1.12-2.4,1.66l-.11.07-.12,0c-1.65-.63-3.29-1.3-4.88-2.09,1.72.45,3.39,1,5.06,1.63l-.23,0c.81-.54,1.63-1.07,2.46-1.57S677.87,457.21,678.74,456.76Z"/><rect class="cls-68" x="335.15" y="509.13" width="95.87" height="10.83"/><path class="cls-69" d="M322.56,509.13h12.6a0,0,0,0,1,0,0V520a0,0,0,0,1,0,0h-12.6a5.41,5.41,0,0,1-5.41-5.41v0A5.41,5.41,0,0,1,322.56,509.13Z"/><polygon class="cls-70" points="441.55 514.54 431.02 509.13 431.02 519.96 441.55 514.54"/><polygon class="cls-71" points="441.55 514.54 439.85 513.67 439.85 515.42 441.55 514.54"/><line class="cls-72" x1="335.15" y1="509.13" x2="335.15" y2="519.96"/><path class="cls-73" d="M286.3,285.77s1.68,11.35-.63,12.16-4.09.72-4,3.47a30.43,30.43,0,0,1,0,3.53H272v-8.75l8.1-9.94Z"/><path class="cls-74" d="M277.1,299.6a8.49,8.49,0,0,1-8.17-7.84c-.33-3.75-4.67-3.08-4-7.25s7.42-12.16,11.42-11.91,4.7,3.24,6.58,3.25c2.59,0,3.17,2.5,3.17,4.83s2.58,1.92,2.58,4.25-7,2-6.75,5.33,2.58,4.67,2,6S280.26,299.76,277.1,299.6Z"/><rect class="cls-75" x="269.26" y="301.72" width="15.54" height="3" transform="translate(-12.57 11.99) rotate(-2.42)"/><path class="cls-73" d="M251.39,332.43s-4.88,18.08-1,26.08,17.5,12.5,17.5,12.5l.33-9s-7.67-1.5-8.83-7.16,3-17.92,3-17.92Z"/><path class="cls-76" d="M266.51,371s.34,51,.5,62.67,2.5,64.5,2.5,64.5h5.67L284,412.51s2.34,27.84,2.34,36.5-.17,48.5-.17,48.5h6S308,399,306.18,368Z"/><path class="cls-77" d="M262.39,336.93l-11-4.5s.37-28.75,25.37-28.75c14.38.13,31.88.88,31.88.88l3.75,9.5L299,316.68s4.5,20.13,5,30.5,4.63,21.25,2.75,22.25-26.75,8.5-41.12,3c.5-16.62,0-35.12-1.63-39A12.31,12.31,0,0,1,262.39,336.93Z"/><line class="cls-78" x1="328.76" y1="283.68" x2="342.51" y2="259.68"/><circle class="cls-78" cx="351.01" cy="244.77" r="17.13"/><path class="cls-73" d="M308.64,304.56s9,.79,11.21-.05,9.66-15.66,10.16-21.33,1.25-10.75,2.63-10.62-.38,5.37.75,5.56,1.06-3.44,1.75-3.5,2.19,2.62,1,4.5-3.13,3.31-3.13,5.56-1.93,22.13-5.68,24.38-15.19,4.37-15.19,4.37Z"/><path class="cls-79" d="M269.51,498.18h5.67s0,5.38.71,6.06,2.81,3.75,2.56,5.13-2.37,2.87-5.31,2.87-5.13-3.43-5.13-5.37S269.7,502.62,269.51,498.18Z"/><path class="cls-79" d="M286.18,497.51h6s-.79,4.92.21,5.67,9.5,5.44,9.37,6.75-4.06,2-10.31,2-6.5-2.06-6.62-4.25S286.41,502,286.18,497.51Z"/><path class="cls-80" d="M351.1,233.6a11.66,11.66,0,0,1,11.66,11.66"/><path class="cls-81" d="M342.1,237.84a11.63,11.63,0,0,1,9-4.24"/><path class="cls-82" d="M339.43,245.26a11.61,11.61,0,0,1,2.67-7.42"/><path class="cls-83" d="M351.1,256.93a11.66,11.66,0,0,1-11.67-11.67"/><path class="cls-84" d="M382.43,245.26a16.5,16.5,0,0,1,28-11.79l-11,11.79Z"/><path class="cls-85" d="M387.56,257.22a16.5,16.5,0,0,0,27.87-12h-16Z"/><path class="cls-86" d="M291.76,245.26a12.92,12.92,0,0,1,25.84,0"/><path class="cls-87" d="M295.84,254.68a12.88,12.88,0,0,1-4.08-9.42"/><path class="cls-88" d="M317.6,245.26a12.92,12.92,0,0,1-21.76,9.42"/><path class="cls-89" d="M387.56,257.22l11.87-12h-17a16.46,16.46,0,0,0,5.13,12"/><g class="cls-90"><ellipse class="cls-91" cx="278.2" cy="339.84" rx="22.44" ry="45.46" transform="translate(-138.33 200.58) rotate(-32.21)"/><polygon class="cls-91" points="296.36 317.09 311.93 313.72 320.23 308.57 311.42 299.69 289.41 297.33 270.73 302.36 277.58 321.69 296.36 317.09"/></g><path class="cls-92" d="M546.17,290.63s-1.58,8.5-1.25,13.08,2.75,9.25,7.67,9.25a16.91,16.91,0,0,0,.17,2.75l-2.84,4.5L562.34,316l1-19.5Z"/><path class="cls-92" d="M512,331.73s-3-2.8-3.51-4.77-2.33-3.46-1.59,0a10.3,10.3,0,0,0,.66,2.27s-9.09-5.46-9.59-4,13.31,9.35,13.31,9.35Z"/><path class="cls-93" d="M543,330.21s-10.25,10.42-15.25,10.17-15.92-9.67-15.92-9.67L510.51,335s10.83,13.84,18.33,13.09,17.75-7.34,17.75-7.34Z"/><path class="cls-94" d="M545.47,290.42s3.25-5.13,13.37-5.13,9.88,13.13,9.88,13.13,5.75,1.12,6.62,3.87-1.12,5-.37,5.75,2.75,3.38,2,5.25-4.75,2.25-6.38,3.25-5.5,4.13-9.62,1.38-4.13-10.25-2.13-12.13,1.88-6.87,0-7-.75,3.38-1.81,3.38-.6-3-2.16-4.06S545.47,290.42,545.47,290.42Z"/><path class="cls-92" d="M506.78,361.65s-3.81,1.5-5.81,1.13-4.13.62-.69,1.44a10.24,10.24,0,0,0,2.33.37s-8.83,5.88-7.71,7S508,364.42,508,364.42Z"/><path class="cls-95" d="M538,435.42s-.75,42.75-1.63,51.12.36,22.47-6.25,22.88-3.37,3.94-3.37,3.94l8.25.25s3.25-2.19,3.81-4.44c1.35-5.4,8.44-39.44,8.44-46.88,0-6.37,2.37-29,2.37-29Z"/><path class="cls-95" d="M559,435.42s2,41.33,1.79,51.46c-.16,8.42,1.5,21.69-5,22.83s-3.38,3.94-3.38,3.94l8.25.25s4.29-3.11,4.86-5.36,4.23-41,4.5-46.5c.5-10.5.62-28.75.62-28.75Z"/><path class="cls-67" d="M542.67,374.38s-8.83,59.66-6.66,63c5.33.5,34.5.5,34.5.5s8-45.17-1.5-64.34c-13.17-5.16-17.84-2.5-17.84-2.5Z"/><path class="cls-96" d="M553.92,317.21c-6.16.17-13.08,13.83-13.33,17.83s4.08,12.59,3.25,21.92a120.23,120.23,0,0,1-3.42,18.67s3,4.16,7.75,4.16,12.75-6.91,14.25-6.83,3.5,2.33,7.5,2.08c0-7.25-5.83-17-5.83-22.66s5.75-17.25,5.75-22.09S569,316.79,553.92,317.21Z"/><path class="cls-93" d="M567,326c2.44,4.31-1.34,8.17-27.42,27.25-7.83,5-31.75,11.58-31.75,11.58l-1.42-3.41s20.09-8.92,26.17-13.75S562,317.13,567,326Z"/><path class="cls-97" d="M555.9,509.67s-15,2.5-15,5.49c5.7,0,24.68.68,24.68.68s2.44-1.77,2.31-3.94-2.44-3.52-2.44-3.52-6.51,5.29-8.55,3.79A21.56,21.56,0,0,0,555.9,509.67Z"/><path class="cls-97" d="M529.49,509.42s-15,2.5-15,5.49c5.7,0,24.68.68,24.68.68s2.44-1.77,2.31-3.94-2.44-3.52-2.44-3.52-6.51,5.29-8.54,3.79A21.56,21.56,0,0,0,529.49,509.42Z"/><path class="cls-98" d="M758,508.92s-17.25,3.44-17.25,5.75,20.5,2.06,21.88.63,1.75-5.44.62-6.82C761,508.55,758,508.92,758,508.92Z"/><path class="cls-98" d="M773,508.8s-8.5,3.1-8.5,5.41,11.75,2.4,13.13,1,1.75-5.44.62-6.81C776,508.42,773,508.8,773,508.8Z"/><path class="cls-99" d="M758,504.11s-1.12,6.94,2.19,6.94,3.69-2.13,3.69-2.13l.18-4.37Z"/><path class="cls-99" d="M771.86,504.11s-1.13,6.94,2.18,6.94,3.69-2.13,3.69-2.13l.19-4.37Z"/><path class="cls-100" d="M754,370.55s-7.12,13-7.12,25.87,10.5,108.13,10.5,108.13H764s-2.87-74.38,3.13-96.25c.75,23,4.5,96.37,4.5,96.37h7.62s2.13-83,3.5-91.37,7-23.13-4-43C765.17,370.3,754,370.55,754,370.55Z"/><g class="cls-101"><ellipse class="cls-102" cx="776" cy="371.35" rx="25.04" ry="30.21"/></g><path class="cls-103" d="M748.54,348.92l4.5,23.25h26.5s3.63-20.87,3.25-27.5-21.25-9-21.25-9l-9.5,2.5Z"/><g class="cls-104"><ellipse class="cls-105" cx="773.52" cy="340.99" rx="16.3" ry="19.7"/></g><path class="cls-106" d="M750.79,295.5s-3.75,16.32,3,18.38c3.43,1,3.75,7.5,3.75,7.5s14.38-4.63,14.5-5.13-.75-17.5-.75-17.5Z"/><path class="cls-107" d="M750.17,294.55c0,4.37,10,9.5,10,14.37s-6.38,20.63-5.75,25.75,7.37,16,20.37,17.13,14.25-5.63,14.13-6.63-1.88-4.75-1.88-6.5,1.63-4.62,1-7-4.25-4.25-4.12-6.5,3-3.62,2.37-8.12-7.5-9.63-8-12.75,2.75-5.5.75-8.5-9.75-8.63-17.5-8.63S750.17,294.55,750.17,294.55Z"/><polygon class="cls-108" points="735.59 335.24 717.14 339.98 710.68 325.23 729.13 320.48 735.59 335.24"/><polygon class="cls-109" points="734.04 334.3 717.64 338.52 712.23 326.17 728.64 321.95 734.04 334.3"/><path class="cls-110" d="M730.29,328.92c-.86,1.21,7.69,5.81,8.32,6.94S745.29,347,745.29,347l3.44-4.25s-8.75-8.68-9.37-10.06-2.57-6.5-4.25-7.56-5.07-2.19-5.25-1.13,4.5,4.75,4.18,5.69S730.92,328.05,730.29,328.92Z"/><path class="cls-111" d="M756.36,321.92c4.71,1.77,5.62,18.13-3.88,28.56S741.11,360.67,738,360.3s-17.56-13.69-19.56-16.63c-1.06-1.62-5.25-3.06-5.75-5.37s-2.31-7.94-1-8.44,4.25,5.75,5.13,5.56.06-2.31.62-2.37,2.44,3.81,2.56,5.12.5,3.69,1.44,4.38,13.81,9.5,16.19,9.43C744.23,351.8,751.86,320.23,756.36,321.92Z"/><ellipse class="cls-112" cx="616.86" cy="503.95" rx="15.46" ry="9"/><ellipse class="cls-113" cx="616.86" cy="501.84" rx="15.46" ry="9"/><ellipse class="cls-114" cx="617.15" cy="497.6" rx="12.22" ry="4.25"/><ellipse class="cls-115" cx="616.86" cy="501.84" rx="15.46" ry="9"/><polygon class="cls-116" points="629.9 508.78 630.88 515.05 636.27 509.22 629.9 508.78"/><polyline class="cls-117" points="631.23 515.79 644.82 525.11 650.37 518.29 636.8 509.48"/><ellipse class="cls-118" cx="647.66" cy="521.75" rx="4.46" ry="2.17" transform="translate(-170.62 670.43) rotate(-49.15)"/><ellipse class="cls-117" cx="634.05" cy="512.66" rx="4.21" ry="2.15" transform="translate(-168.46 656.98) rotate(-49.15)"/></g></g></svg>