<svg xmlns="http://www.w3.org/2000/svg" viewBox="0 0 470.37 319.26"><defs><style>.cls-1{fill:#ffe2e1;}.cls-1,.cls-2,.cls-3{stroke:#ffb4bb;}.cls-1,.cls-14,.cls-2,.cls-28,.cls-3,.cls-37,.cls-40,.cls-45,.cls-6{stroke-miterlimit:10;}.cls-10,.cls-18,.cls-2{fill:#fff;}.cls-14,.cls-2,.cls-28,.cls-3,.cls-40,.cls-45{stroke-width:0.93px;}.cls-14,.cls-28,.cls-3,.cls-37,.cls-40,.cls-45{fill:none;}.cls-4{fill:#c7d3ff;}.cls-5{fill:#efe1ff;}.cls-6{fill:#73b4f4;stroke:#3c91e5;}.cls-7{fill:#b4b7ff;}.cls-8,.cls-9{fill:#5a9ff2;}.cls-11,.cls-16,.cls-40,.cls-9{opacity:0.11;}.cls-12{fill:#e3e1ff;}.cls-13{fill:#e3e3e3;}.cls-14{stroke:#b4b7ff;}.cls-15{fill:#ccc;}.cls-17{fill:#96dbbf;}.cls-18{font-size:6.04px;}.cls-18,.cls-20,.cls-22{font-family:OpenSans-Italic, Open Sans;font-style:italic;}.cls-19{fill:#abbdff;}.cls-20{font-size:6.04px;}.cls-20,.cls-22{fill:#5957d0;}.cls-21{fill:#7391ff;}.cls-22{font-size:6.04px;}.cls-23{fill:#ff9100;}.cls-24{fill:#b0c1ff;}.cls-25{fill:#6989ff;}.cls-26{fill:#3f2d6f;}.cls-27{fill:#0073aa;}.cls-28{stroke:#195fa0;}.cls-29{fill:#fa968c;}.cls-30{fill:#fab9af;}.cls-31{fill:#0091c8;}.cls-32{fill:#ff8c46;}.cls-33{fill:#4e3787;}.cls-34{fill:#ffe3d4;}.cls-35{fill:#005e57;}.cls-36{fill:#55696e;}.cls-37{stroke:#3c4646;stroke-width:0.46px;}.cls-38{fill:#25bbcc;}.cls-39{fill:#00558c;}.cls-40{stroke:#000;}.cls-41{fill:#9da4f9;}.cls-42{opacity:0.23;}.cls-43{opacity:0.14;}.cls-44{fill:#cce4ff;}.cls-45{stroke:#414099;}.cls-46{fill:#5ecc9d;}.cls-47{fill:#485eb0;}.cls-48{fill:#a6b9ff;}</style></defs><title>web-development</title><g id="Layer_2" data-name="Layer 2"><g id="OBJECTS"><path class="cls-1" d="M57.19,297.54C49.36,281,18.45,266,37,245.18S-3.57,201,23.56,181.48C53.46,160,38,129.23,57.19,129.23Z"/><path class="cls-1" d="M57.19,297.54C65,281,95.93,266,77.36,245.18S118,201,90.82,181.48C60.93,160,76.38,129.23,57.19,129.23Z"/><path class="cls-1" d="M57.19,285.93c0-23.19-26-27.69-26-27.69"/><path class="cls-1" d="M57.19,235.58c0-25.29-24.79-44.64-40.87-43.25"/><path class="cls-1" d="M57.19,187.61c0-26.16-13.06-39.16-13.06-39.16"/><path class="cls-1" d="M57.19,285.93c0-23.19,26-27.69,26-27.69"/><path class="cls-1" d="M57.19,235.58c0-25.29,24.79-44.64,40.88-43.25"/><path class="cls-1" d="M57.19,187.61c0-26.16,13.06-39.16,13.06-39.16"/><path class="cls-2" d="M413.87,273.75c-7.84-16.51-38.74-31.51-20.17-52.36s-40.6-44.15-13.46-63.7c29.89-21.53,14.43-52.25,33.63-52.25Z"/><path class="cls-2" d="M413.87,273.75c7.83-16.51,38.73-31.51,20.16-52.36s40.6-44.15,13.46-63.7c-29.89-21.53-14.43-52.25-33.62-52.25Z"/><path class="cls-3" d="M413.87,262.14c0-23.19-26-27.69-26-27.69"/><path class="cls-3" d="M413.87,211.79c0-25.3-24.79-44.64-40.88-43.25"/><path class="cls-3" d="M413.87,163.82c0-26.16-13.07-39.17-13.07-39.17"/><path class="cls-3" d="M413.87,262.14c0-23.19,26-27.69,26-27.69"/><path class="cls-3" d="M413.87,211.79c0-25.3,24.78-44.64,40.87-43.25"/><path class="cls-3" d="M413.87,163.82c0-26.16,13.06-39.17,13.06-39.17"/><ellipse class="cls-4" cx="345.5" cy="306.82" rx="6.78" ry="1.12"/><ellipse class="cls-4" cx="392.96" cy="306.82" rx="6.78" ry="1.12"/><ellipse class="cls-4" cx="369.4" cy="306.82" rx="6.78" ry="1.12"/><path class="cls-4" d="M307.18,303c0,1.5-37.45,2.71-83.65,2.71s-83.64-1.21-83.64-2.71,37.45-2.71,83.64-2.71S307.18,301.48,307.18,303Z"/><ellipse class="cls-4" cx="81.27" cy="294.57" rx="75.97" ry="2.98"/><path class="cls-5" d="M422.29,291.56S432.05,163.73,409.74,161s-18.36,53.52-40.55,53S334.87,195,326.77,215s-8.31,39.4-27.49,33.4-47.52,43.21-47.52,43.21Z"/><path class="cls-6" d="M291.45,290.63h173.8s12.54-69.43-3.72-80.61-18.59,10.2-28.35,10.67S421.56,182.88,409,183.2s-15.63,38.64-28.73,44.34-29.52-13.14-37.57,0-1.44,37.88-15.44,37.59S292.38,259.73,291.45,290.63Z"/><path class="cls-6" d="M409.33,197.81s4.8,55.06.62,92.9"/><path class="cls-6" d="M456.19,219.57s3.95,49.61-4.88,70.82"/><line class="cls-6" x1="450.14" y1="223.01" x2="456.75" y2="229.45"/><line class="cls-6" x1="464.32" y1="226.6" x2="456.98" y2="236.91"/><line class="cls-6" x1="447.01" y1="238.6" x2="457.01" y2="246.18"/><line class="cls-6" x1="466.41" y1="245.01" x2="456.85" y2="252.56"/><line class="cls-6" x1="444.8" y1="252.56" x2="456.32" y2="261.63"/><line class="cls-6" x1="466.41" y1="262.9" x2="455.82" y2="270.12"/><line class="cls-6" x1="415.68" y1="201.47" x2="410.16" y2="209.23"/><line class="cls-6" x1="399.57" y1="206.25" x2="410.61" y2="216.87"/><line class="cls-6" x1="422.96" y1="220.3" x2="411.32" y2="233.28"/><line class="cls-6" x1="393.84" y1="226.79" x2="411.66" y2="244.26"/><line class="cls-6" x1="432.72" y1="235.52" x2="411.65" y2="255.85"/><line class="cls-6" x1="388.11" y1="248.79" x2="411.37" y2="270.12"/><line class="cls-6" x1="435.97" y1="260.7" x2="411" y2="278.04"/><path class="cls-6" d="M352.85,235.52s9.14,28.19,9.91,55.19"/><line class="cls-6" x1="359.35" y1="237.93" x2="356.01" y2="246.78"/><line class="cls-6" x1="370.2" y1="242.39" x2="359.8" y2="264.16"/><line class="cls-6" x1="373.14" y1="261.63" x2="362.04" y2="279.92"/><line class="cls-6" x1="348.66" y1="246.18" x2="356.89" y2="250.32"/><line class="cls-6" x1="344.17" y1="259.45" x2="360.39" y2="267.55"/><line class="cls-6" x1="347.67" y1="276.43" x2="362.25" y2="282.08"/><path class="cls-7" d="M429.31,255.93l-8,34a3.77,3.77,0,0,1-4.54,2.81h0a3.78,3.78,0,0,1-2.8-4.54l8-34a3.77,3.77,0,0,1,4.54-2.81h0A3.77,3.77,0,0,1,429.31,255.93Z"/><path class="cls-7" d="M412.26,256.3l7.07,34.23A3.78,3.78,0,0,1,416.4,295h0a3.78,3.78,0,0,1-4.46-2.94l-7.07-34.23a3.78,3.78,0,0,1,2.93-4.46h0A3.78,3.78,0,0,1,412.26,256.3Z"/><path class="cls-8" d="M19.93,290.39s-7.7-100.83,9.9-103,14.48,42.22,32,41.84,27.07-15,33.47.72S101.83,261,117,256.3s37.48,34.09,37.48,34.09Z"/><path class="cls-9" d="M117,256.3C101.83,261,101.67,245.71,95.28,230c-5.41-13.32-13.1-4.9-25.93-1.75v62.19h85.09S132.1,251.57,117,256.3Z"/><path class="cls-10" d="M295.72,303a78.28,78.28,0,0,0-144.37,0Z"/><path class="cls-11" d="M271.82,271.66a78.24,78.24,0,0,0-96.58,0Z"/><polygon class="cls-10" points="368.52 265.87 78.55 265.87 78.55 65.68 368.52 65.68 368.52 65.68 368.52 265.87"/><rect class="cls-10" x="89.32" y="86.03" width="268.43" height="166.68"/><rect class="cls-12" x="89.32" y="86.03" width="66" height="166.68"/><rect class="cls-12" x="89.32" y="86.03" width="268.43" height="14.97"/><rect class="cls-7" x="89.32" y="86.03" width="66" height="14.97"/><circle class="cls-13" cx="223.53" cy="76.45" r="2.56"/><rect class="cls-10" x="93.53" y="89.76" width="8.52" height="0.93"/><rect class="cls-10" x="93.53" y="91.73" width="8.52" height="0.93"/><rect class="cls-10" x="93.53" y="93.71" width="8.52" height="0.93"/><rect class="cls-7" x="177.94" y="113.5" width="151.49" height="46.32"/><rect class="cls-12" x="176.22" y="111.51" width="46.33" height="46.33"/><rect class="cls-14" x="180.8" y="116.08" width="37.18" height="37.18"/><line class="cls-14" x1="180.8" y1="116.08" x2="217.98" y2="153.26"/><line class="cls-14" x1="180.8" y1="153.26" x2="217.98" y2="116.08"/><rect class="cls-10" x="222.55" y="111.51" width="105.18" height="46.33"/><rect class="cls-13" x="298.53" y="149.98" width="23.35" height="4.41"/><rect class="cls-15" x="224.53" y="114.66" width="34.62" height="7.9"/><rect class="cls-15" x="224.53" y="124.77" width="47.4" height="7.9"/><rect class="cls-13" x="224.53" y="135.97" width="97.36" height="1.38"/><rect class="cls-13" x="224.53" y="139.17" width="97.36" height="1.38"/><rect class="cls-13" x="224.53" y="142.38" width="27.53" height="1.38"/><rect class="cls-13" x="254.79" y="142.38" width="1.38" height="1.38"/><rect class="cls-13" x="257.85" y="142.38" width="1.38" height="1.38"/><rect class="cls-13" x="260.9" y="142.38" width="1.38" height="1.38"/><rect class="cls-13" x="263.96" y="142.38" width="1.38" height="1.38"/><rect class="cls-7" x="177.94" y="184.83" width="151.49" height="46.32"/><rect class="cls-12" x="176.22" y="182.84" width="46.33" height="46.33"/><rect class="cls-14" x="180.8" y="187.41" width="37.18" height="37.18"/><line class="cls-14" x1="180.8" y1="187.41" x2="217.98" y2="224.59"/><line class="cls-14" x1="180.8" y1="224.59" x2="217.98" y2="187.41"/><rect class="cls-10" x="222.55" y="182.84" width="105.18" height="46.33"/><rect class="cls-13" x="298.53" y="221.31" width="23.35" height="4.41"/><rect class="cls-15" x="224.53" y="185.99" width="34.62" height="7.9"/><rect class="cls-15" x="224.53" y="196.1" width="47.4" height="7.9"/><rect class="cls-13" x="224.53" y="207.3" width="97.36" height="1.38"/><rect class="cls-13" x="224.53" y="210.51" width="97.36" height="1.38"/><rect class="cls-13" x="224.53" y="213.72" width="27.53" height="1.38"/><rect class="cls-13" x="254.79" y="213.72" width="1.38" height="1.38"/><rect class="cls-13" x="257.85" y="213.72" width="1.38" height="1.38"/><rect class="cls-13" x="260.9" y="213.72" width="1.38" height="1.38"/><rect class="cls-13" x="263.96" y="213.72" width="1.38" height="1.38"/><line class="cls-14" x1="353.11" y1="105.34" x2="353.11" y2="248.23"/><path class="cls-10" d="M353.11,159h0a1.22,1.22,0,0,1-1.22-1.22V110.28a1.22,1.22,0,0,1,1.22-1.22h0a1.22,1.22,0,0,1,1.22,1.22v47.51A1.22,1.22,0,0,1,353.11,159Z"/><path class="cls-14" d="M288.2,170.55l-2.52,2.3a3.77,3.77,0,0,1-5.06,0h0a3.76,3.76,0,0,0-5.05,0h0a3.76,3.76,0,0,1-5.05,0h0a3.77,3.77,0,0,0-5.06,0h0a3.76,3.76,0,0,1-5,0h0a3.76,3.76,0,0,0-5.05,0h0a3.77,3.77,0,0,1-5.06,0h0a3.76,3.76,0,0,0-5.05,0h0a3.77,3.77,0,0,1-5.06,0h0a3.76,3.76,0,0,0-5.05,0h0a3.76,3.76,0,0,1-5,0h0a3.77,3.77,0,0,0-5.06,0h0a3.76,3.76,0,0,1-5.05,0l-2.53-2.3"/><path class="cls-14" d="M288.2,241.88l-2.52,2.3a3.77,3.77,0,0,1-5.06,0h0a3.76,3.76,0,0,0-5.05,0h0a3.76,3.76,0,0,1-5.05,0h0a3.77,3.77,0,0,0-5.06,0h0a3.76,3.76,0,0,1-5,0h0a3.76,3.76,0,0,0-5.05,0h0a3.77,3.77,0,0,1-5.06,0h0a3.76,3.76,0,0,0-5.05,0h0a3.77,3.77,0,0,1-5.06,0h0a3.76,3.76,0,0,0-5.05,0h0a3.76,3.76,0,0,1-5,0h0a3.77,3.77,0,0,0-5.06,0h0a3.76,3.76,0,0,1-5.05,0l-2.53-2.3"/><path class="cls-7" d="M346.47,90.58a2.64,2.64,0,0,0,3.48,4l2.67,2.67.49-.49-2.67-2.67a2.64,2.64,0,0,0-4-3.48Zm3.25,3.26a2,2,0,1,1,0-2.77A2,2,0,0,1,349.72,93.84Z"/><circle class="cls-7" cx="101.71" cy="117.22" r="3.72"/><rect class="cls-7" x="109.61" y="115.95" width="33.46" height="2.53"/><circle class="cls-7" cx="101.71" cy="132.44" r="3.72"/><rect class="cls-7" x="109.61" y="131.17" width="33.46" height="2.53"/><circle class="cls-7" cx="101.71" cy="147.66" r="3.72"/><rect class="cls-7" x="109.61" y="146.39" width="33.46" height="2.53"/><circle class="cls-7" cx="101.71" cy="162.87" r="3.72"/><rect class="cls-7" x="109.61" y="161.61" width="33.46" height="2.53"/><circle class="cls-7" cx="101.71" cy="178.09" r="3.72"/><rect class="cls-7" x="109.61" y="176.83" width="33.46" height="2.53"/><circle class="cls-7" cx="101.71" cy="193.31" r="3.72"/><rect class="cls-7" x="109.61" y="192.05" width="33.46" height="2.53"/><rect class="cls-7" x="189.25" y="89.76" width="68.57" height="7.5"/><g class="cls-16"><path d="M366.61,103.17H319.47a3.77,3.77,0,0,1-3.77-3.77h0a3.77,3.77,0,0,1,3.77-3.78h47.14a3.77,3.77,0,0,1,3.77,3.78h0A3.77,3.77,0,0,1,366.61,103.17Z"/></g><path class="cls-17" d="M367.77,101.16H320.63a3.77,3.77,0,0,1-3.77-3.77h0a3.77,3.77,0,0,1,3.77-3.78h47.14a3.77,3.77,0,0,1,3.77,3.78h0A3.77,3.77,0,0,1,367.77,101.16Z"/><text class="cls-18" transform="translate(336.45 99.57)">search</text><path class="cls-19" d="M389.49,168.92l-2.85,34.83a3.77,3.77,0,0,1-4.06,3.46h0a3.78,3.78,0,0,1-3.46-4.07L382,168.3a3.77,3.77,0,0,1,4.07-3.45h0A3.77,3.77,0,0,1,389.49,168.92Z"/><text class="cls-20" transform="translate(385.64 195.92) rotate(-85.32)">search</text><path class="cls-19" d="M433.34,256.25l-2.85,34.83a3.78,3.78,0,0,1-4.07,3.46h0a3.78,3.78,0,0,1-3.45-4.07l2.85-34.84a3.77,3.77,0,0,1,4.07-3.45h0A3.77,3.77,0,0,1,433.34,256.25Z"/><text class="cls-20" transform="translate(429.49 283.25) rotate(-85.32)">search</text><path class="cls-21" d="M419.55,254.2l7.62,34.12a3.76,3.76,0,0,1-2.86,4.5h0a3.76,3.76,0,0,1-4.5-2.86l-7.62-34.11a3.78,3.78,0,0,1,2.86-4.51h0A3.77,3.77,0,0,1,419.55,254.2Z"/><text class="cls-22" transform="translate(424 281.15) rotate(-102.59)">search</text><g class="cls-16"><rect x="152.51" y="203.24" width="46.33" height="46.33" transform="translate(-27.95 24.77) rotate(-7.47)"/></g><rect class="cls-10" x="149.46" y="200.64" width="46.33" height="46.33" transform="translate(-27.64 24.35) rotate(-7.47)"/><rect class="cls-4" x="152.18" y="203.35" width="40.9" height="40.9" transform="translate(-27.64 24.35) rotate(-7.47)"/><path class="cls-23" d="M189.83,216.09a8,8,0,1,1-9-6.89A8,8,0,0,1,189.83,216.09Z"/><polygon class="cls-24" points="194.06 229.97 195.62 241.86 159.62 246.58 180.43 219.5 194.06 229.97"/><polygon class="cls-25" points="190.93 242.47 155.07 247.18 152.93 230.89 161.43 219.82 173.22 228.87 190.93 242.47"/><path class="cls-26" d="M135.61,204.49c1.09,1.83,2.37,5,1.48,7.79s-3,4-3.57,6.58,1.48,11.66-3.33,11.85S126.67,220,126.67,220l3.25-14.33Z"/><path class="cls-27" d="M126.52,253.91s10.8,19.87,12.31,23.93-7.25,28.93-6.88,32.3,7.81,4.18,7.58,5.92-9.53-.35-12.09,0-3.83-.93-3-3a62.31,62.31,0,0,0,2.91-8.25c.46-2.32.63-16,4-23l-9.84-16.26Z"/><path class="cls-28" d="M127.12,266.68s7,9.6,7.12,13.16-4.41,28-5.57,31"/><path class="cls-11" d="M130.47,261.27c-1.62-3-3-5.58-3.6-6.71l-.47-.38-4.88,11.35,8.67,14.33Z"/><path class="cls-29" d="M129.67,232.61l4,4.79s12.47-2.22,13.83-3.58,4.58-4.51,6.11-4.54-2.93,3.16-2.88,4.16.38,2.88.38,2.88l-18.21,6.81-6.39-6.61Z"/><polygon class="cls-11" points="132.7 236.22 129.67 232.61 126.52 236.51 130.69 240.83 132.7 236.22"/><path class="cls-30" d="M133.87,208.06l.93,6h-1.51s-1,6.31-4.61,5.07l-.46,2.52-4.3-.23,2.83-8.41Z"/><path class="cls-29" d="M123.92,221.46l4.3.23.46-2.52a2.37,2.37,0,0,0,1.92-.09c-4.08-.76-2.54-5.43-2.54-5.43l-1-.8-.28.2Z"/><path class="cls-31" d="M125.15,220.25l4.07.67a15.88,15.88,0,0,0,0,4.82c.43,2.06,2.58,5.78,2.06,8.1s-4.7,9.55-4.76,12.11c-.08,2.93,2.47,29.8,2.86,34.29s-12.47,29.82-12.7,32.38,8.83,4.26,8.83,5.88-10,.16-11.77,0-5,1.55-5.19-1,2.78-7.36,4.33-11.7,4.81-20.06,8.21-25.71c0,0-4.1-10.61-5.34-13.94s-4.15-6.51-4.26-12.71c-.08-4.26,2.25-7,2.63-10.61s-.73-6.89-.11-9.64,2.44-12.94,2.44-12.94Z"/><path class="cls-28" d="M120.3,248.86c-.46,3.33-1.08,6.28,0,10.69s5,16.89,5.21,20.91S113.64,311.21,113.33,314"/><path class="cls-32" d="M129.22,220.92l-4.07-.67h-8.7s-1.83,10.19-2.44,12.94.5,6.08.11,9.64a20.33,20.33,0,0,1-1.43,4.89,35.49,35.49,0,0,0,14.06,2.47c-.16-2.11-.25-3.66-.23-4.24.06-2.56,4.23-9.79,4.76-12.11s-1.63-6-2.06-8.1A15.88,15.88,0,0,1,129.22,220.92Z"/><path class="cls-11" d="M127.8,241.87l-10-11.5,8.87,17.95c-.08-1.14-.12-2-.1-2.37A13.77,13.77,0,0,1,127.8,241.87Z"/><path class="cls-30" d="M117.91,230.76s7.71,11.56,9.61,14.25,5.75,3.35,10,4.66,13,2.72,17.71,1.07,5.6-3.57,5.6-3.57L155,248c-.55,0-.63-.8,0-1.45s1.18-1.79.69-1.95-2.41,1.42-3.26,1.75-2.36,1.26-3.93.95-14-4-16.17-5.34-7.57-13.23-8.37-15.14-1.8-3.1-3.66-3S116.09,226.77,117.91,230.76Z"/><path class="cls-33" d="M135.77,204.77s-2.05,8.63-8.44,10.49c0,0-3.18,12.78-11.08,11a25.5,25.5,0,0,0-2.24,6.89s-4.65.2-5.27-5.5S117,213.52,118,211.16s1-6.47,3.84-9.22a9,9,0,0,1,9.45-1.51A11.23,11.23,0,0,1,135.77,204.77Z"/><path class="cls-34" d="M127.44,316.06c2.56-.35,11.85,1.75,12.09,0s-7-2.54-7.55-5.82l-6.31-.37c-.46,1.2-.92,2.33-1.25,3.17C123.61,315.13,124.89,316.41,127.44,316.06Z"/><path class="cls-34" d="M116.71,313h-6.94a10.67,10.67,0,0,0-1.22,4.55c.23,2.55,3.4.85,5.19,1s11.77,1.63,11.77,0S117.25,315.32,116.71,313Z"/><path class="cls-11" d="M113.25,224.16s-2.44,3.89.76,9a25.5,25.5,0,0,1,2.24-6.89A4.37,4.37,0,0,1,113.25,224.16Z"/><path class="cls-30" d="M365.92,205.53l1.29,8.57,1.78,3.81s-9.87.94-13.8,0l7.33-4-1.29-7.74Z"/><path class="cls-35" d="M355.19,217.91c3.93.94,13.8,0,13.8,0l-1.78-3.81-4.69-.24Z"/><path class="cls-30" d="M381.36,205.53l1.29,8.57,1.78,3.81s-9.88.94-13.81,0l7.34-4-1.29-7.74Z"/><path class="cls-35" d="M370.62,217.91c3.93.94,13.81,0,13.81,0l-1.78-3.81-4.69-.24Z"/><path class="cls-36" d="M373.15,153.59l-20.58-.74c.18,9.51.49,19.64,1.06,24.52C354.86,188,360,209.23,360,209.23h7.45l-3.7-37.73,12.67,37.73h7c.06-4.87-9.91-49.57-10.15-52.92C373.16,155.46,373.14,154.54,373.15,153.59Z"/><path class="cls-37" d="M367.62,154.5s0,9.76,7.2,10.34"/><line class="cls-37" x1="361.93" y1="159.24" x2="363.74" y2="171.74"/><path class="cls-37" d="M359.41,159.24l.85,5.28a3.92,3.92,0,0,0,2.73,3.14l.17.06"/><path class="cls-38" d="M377.33,125.05c-5.57-6.45-9.5-6.69-14.14-7.74s-17.36,1.34-23.58-.77-9.38-12.2-9.38-12.2c-.06-2.64-2.41-7.45-3.29-7.09s0,3.93,0,3.93h-6.45l4.81,4.45c7.25,24.47,27,22.42,27,22.42s0,17.28.35,30.31c8.13,6,17.5-.43,20.49-2.85-.33-7.54,1.8-19,1.8-19,5.87,5.39,9.56,23.28,9.56,23.28l-.11,5.31a3.79,3.79,0,0,1,3,.14c.71.29-.36,2.62,0,2.91s1.27-.87,1.44-2.61c.33-3.21-.23-19.17-1.7-23.87S382.9,131.5,377.33,125.05Z"/><path class="cls-30" d="M326.94,97.25c-.88.35,0,3.93,0,3.93h-6.45l4.81,4.45,4.93-1.29C330.17,101.7,327.82,96.89,326.94,97.25Z"/><path class="cls-30" d="M361.74,100.62l-4.3,4.86,1.66.83s-.87,1.93-1.6,3.83S360.82,112,361,113s-.44,3.24-.44,5c.94,1,5.58.32,5.58.32l1.74-6.58s4.69-4.27,5.16-7.32-5.32-5.21-6.63-6-1.21-3.74-2.48-4S361.26,97.67,361.74,100.62Z"/><path class="cls-29" d="M368.07,111.6l-1.47-.39s-5.24,1.35-8.48.35c1,.59,2.75.82,2.86,1.47.15,1-.44,3.24-.44,5,.94,1,5.58.32,5.58.32l1.74-6.58Z"/><path class="cls-39" d="M373,104.48c.47-3-5.32-5.21-6.63-6s-1.21-3.74-2.48-4-3.62,2.36-2.17,6.2a24.4,24.4,0,0,0,6.95,3.23l-1.62,4.42s2.07-.63,2,.49-2,2.88-2.74,2.35c0,0-1.08,1.33,1.08,2.51l.48-1.82S372.55,107.53,373,104.48Z"/><line class="cls-37" x1="375.39" y1="206.25" x2="383.05" y2="206.25"/><line class="cls-37" x1="359.33" y1="206.52" x2="367.18" y2="206.52"/><path class="cls-40" d="M359.59,117c-.94,2.93,4.35,4,9,1.6"/><line class="cls-40" x1="384.31" y1="158.72" x2="388.84" y2="158.72"/><line class="cls-40" x1="330.56" y1="105.29" x2="325.71" y2="106.94"/><path class="cls-11" d="M371.22,129.51s-4.1,15,2.52,15.42c.54-4.65,1.24-8.44,1.24-8.44C373.19,134.38,371.14,131.27,371.22,129.51Z"/><polygon class="cls-11" points="362.87 209.23 367.42 209.23 363.94 173.77 363.94 173.77 362.87 209.23"/><path class="cls-30" d="M387.38,168.13c.35.29,1.27-.87,1.44-2.61a57.16,57.16,0,0,0,.05-5.76l-4.35-.09h0l0,.1-.11,5.31a3.79,3.79,0,0,1,3,.14C388.1,165.51,387,167.84,387.38,168.13Z"/><path class="cls-41" d="M374.55,218.91l-.21,2.4h-20.1l.21-2.4h-2.33L344.54,307h2.33l1.25-14.54h20.1L367,307h2.32l7.58-88.09Zm-4.39,4.15h4l-1.34,15.6h-20.1l1.34-15.6ZM352.6,240.41h20.1L371.35,256H351.26Zm18.6,17.35-1.34,15.6h-20.1l1.34-15.6h20.1Zm-2.83,32.95h-20.1l1.34-15.6h20.1Z"/><rect class="cls-7" x="348.95" y="217.74" width="41.34" height="1.17"/><rect class="cls-42" x="348.95" y="217.74" width="18.24" height="1.17"/><polygon class="cls-7" points="385.33 223 364.19 223 364.04 221.25 385.18 221.25 385.33 223"/><polygon class="cls-43" points="368.8 223 364.19 223 364.04 221.25 368.65 221.25 368.8 223"/><polygon class="cls-7" points="386.82 240.35 365.68 240.35 365.53 238.6 386.67 238.6 386.82 240.35"/><polygon class="cls-43" points="370.29 240.35 365.68 240.35 365.53 238.6 370.14 238.6 370.29 240.35"/><polygon class="cls-7" points="388.32 257.7 367.17 257.7 367.02 255.95 388.17 255.95 388.32 257.7"/><polygon class="cls-43" points="371.79 257.7 367.17 257.7 367.02 255.95 371.63 255.95 371.79 257.7"/><polygon class="cls-7" points="389.81 275.05 368.67 275.05 368.52 273.3 389.66 273.3 389.81 275.05"/><polygon class="cls-43" points="373.28 275.05 368.67 275.05 368.52 273.3 373.13 273.3 373.28 275.05"/><polygon class="cls-7" points="391.3 292.4 370.16 292.4 370.01 290.65 391.15 290.65 391.3 292.4"/><polygon class="cls-43" points="374.77 292.4 370.16 292.4 370.01 290.65 374.62 290.65 374.77 292.4"/><polygon class="cls-7" points="371.99 306.94 369.67 306.94 362.09 218.85 364.41 218.85 371.99 306.94"/><polygon class="cls-7" points="394.41 306.94 392.09 306.94 384.51 218.85 386.83 218.85 394.41 306.94"/><path class="cls-11" d="M359.45,97.82s-1.05,3.89-.18,5.92a6.11,6.11,0,0,1,.52-2.56A12.28,12.28,0,0,1,359.45,97.82Z"/><path class="cls-44" d="M381.27,16.91h-4.66c-7.35,0-9.38-17.19-16.43-16.91s-11.35,12.36-16,12.36S336,9.2,330,9.2s-13.08,7.71-18,7.71h-4.92a4.92,4.92,0,0,0-4.92,4.92h0a4.92,4.92,0,0,0,4.92,4.92h74.15a4.92,4.92,0,0,0,4.92-4.92h0A4.92,4.92,0,0,0,381.27,16.91Z"/><path class="cls-44" d="M163.34,47.32h-2.26v0c-4.93,0-7.39-3.87-11.17-4.79a8.9,8.9,0,0,0-6.39.71s-4.41-5.94-11-5.94-9.31,2.9-9.31,2.9a22.26,22.26,0,0,0-12.83-4.23c-11.08,0-14.57,11.39-17.82,11.39H89.69a3.25,3.25,0,1,0,0,6.5h73.65a3.25,3.25,0,1,0,0-6.5Z"/><polygon class="cls-25" points="434.13 311.17 409.15 311.17 407.41 279.25 435.88 279.25 434.13 311.17"/><line class="cls-45" x1="410.4" y1="283.51" x2="435.57" y2="283.51"/><path class="cls-45" d="M408.22,283.51s7.78,22.78,25.33,22.78c9.87,0,2-20.57,2-20.57"/><rect class="cls-46" x="13.91" y="261.52" width="74.06" height="27.83"/><path class="cls-17" d="M13.91,261.52a13.91,13.91,0,0,0,0,27.82Z"/><path class="cls-11" d="M13.91,261.52a13.91,13.91,0,0,0,0,27.82Z"/><path class="cls-11" d="M88,261.52a13.91,13.91,0,1,0,0,27.82Z"/><polygon class="cls-17" points="86.27 261.52 15.62 261.52 13.91 261.52 13.91 263.22 13.91 289.34 15.62 289.34 15.62 263.22 86.27 263.22 86.27 289.34 87.97 289.34 87.97 263.22 87.97 261.52 86.27 261.52"/><rect class="cls-11" x="13.91" y="286.43" width="74.06" height="2.91"/><rect class="cls-10" x="66.66" y="271.17" width="28.65" height="28.22" transform="translate(-46.21 17.39) rotate(-9.55)"/><rect class="cls-4" x="68.14" y="272.62" width="25.7" height="25.31" transform="translate(-46.21 17.39) rotate(-9.55)"/><path class="cls-25" d="M93.69,283.36c-8.26,1.5-20.17,7.14-24.49,9.28l1.21,7.25,25.34-4.26Z"/><path class="cls-12" d="M92.22,276l3.31,19.69-11.76,2c1-1.47,4.83-2.16,2.75-3.19-2.25-1.1-5,.45-3.65-1.78s3.37-6.12,2.23-6.07-3.71,1.25-2.59-1.14,4-6.28,2.42-6.11-4,1.8-2.64-.64,1.89-5,.84-4.66c-.47.17-.06-.87.53-2.05l3.9-.66.93.93Z"/><path class="cls-7" d="M91.55,270.67l4.2,25-7.35,1.23c-.34-.9,4.29-3.54,3.92-4.92s-4.28,1.59-4.61.78,3.93-5.64,3.74-7.9-2.29,1.15-4.11,0,2.43-4.57,2.64-7S88,277,86.9,276.25c-.56-.39.44-2.23,1.59-4,.28-.42.56-.84.83-1.23Z"/><rect class="cls-10" x="50.88" y="271.17" width="28.65" height="28.22" transform="translate(-46.43 14.77) rotate(-9.55)"/><rect class="cls-12" x="52.35" y="272.62" width="25.7" height="25.31" transform="translate(-46.43 14.77) rotate(-9.55)"/><path class="cls-7" d="M73.83,283.83a4.6,4.6,0,1,1-5.3-3.77A4.6,4.6,0,0,1,73.83,283.83Z"/><path class="cls-7" d="M77.73,282.32,80,295.63l-25.34,4.26L52.8,289a14.5,14.5,0,0,0,9.65.58c6.62-1.62,9.24-6.58,14-7.16C76.85,282.39,77.3,282.34,77.73,282.32Z"/><polygon class="cls-47" points="58.02 277.44 57.09 278.15 55.98 277.79 55.15 279.1 56.03 278.32 57.23 279.01 58.15 277.97 59.23 278.42 58.02 277.44"/><polygon class="cls-47" points="61.31 279.58 60.38 280.29 59.27 279.93 58.44 281.24 59.31 280.46 60.52 281.15 61.44 280.11 62.52 280.56 61.31 279.58"/><rect class="cls-10" x="34.63" y="271.17" width="28.65" height="28.22" transform="translate(-46.66 12.08) rotate(-9.55)"/><rect class="cls-4" x="36.11" y="272.62" width="25.7" height="25.31" transform="matrix(0.99, -0.17, 0.17, 0.99, -46.66, 12.08)"/><path class="cls-48" d="M61.66,283.36c-8.26,1.5-20.16,7.14-24.49,9.28l1.22,7.25,25.34-4.26Z"/><path class="cls-25" d="M60.19,276l3.31,19.69-11.76,2c1-1.47,4.83-2.16,2.75-3.19-2.25-1.1-5,.45-3.65-1.78s3.37-6.12,2.23-6.07-3.71,1.25-2.58-1.14,4-6.28,2.42-6.11-4,1.8-2.65-.64,1.89-5,.85-4.66c-.48.17-.07-.87.52-2.05l3.9-.66.93.93Z"/><path class="cls-47" d="M59.53,270.67l4.2,25-7.36,1.23c-.34-.9,4.3-3.54,3.92-4.92s-4.28,1.59-4.61.78,3.94-5.64,3.75-7.9-2.3,1.15-4.12,0,2.43-4.57,2.65-7-2-.78-3.08-1.54c-.57-.39.43-2.23,1.58-4,.28-.42.56-.84.83-1.23Z"/><rect class="cls-10" x="18.85" y="271.17" width="28.65" height="28.22" transform="translate(-46.88 9.46) rotate(-9.55)"/><rect class="cls-4" x="20.33" y="272.62" width="25.7" height="25.31" transform="translate(-46.88 9.46) rotate(-9.55)"/><path class="cls-23" d="M41.8,283.83a4.6,4.6,0,1,1-5.3-3.77A4.6,4.6,0,0,1,41.8,283.83Z"/><path class="cls-25" d="M45.7,282.32l2.24,13.31L22.6,299.89,20.77,289a14.53,14.53,0,0,0,9.66.58c6.62-1.62,9.23-6.58,13.94-7.16C44.83,282.39,45.27,282.34,45.7,282.32Z"/><polygon class="cls-47" points="25.99 277.44 25.06 278.15 23.95 277.79 23.13 279.1 24 278.32 25.21 279.01 26.12 277.97 27.2 278.42 25.99 277.44"/><polygon class="cls-47" points="29.28 279.58 28.35 280.29 27.24 279.93 26.41 281.24 27.29 280.46 28.49 281.15 29.41 280.11 30.49 280.56 29.28 279.58"/><polygon class="cls-11" points="97.64 298.67 20.77 298.67 18.88 286.43 95.75 286.43 97.64 298.67"/><rect class="cls-17" x="13.91" y="289.34" width="88.66" height="28.67"/><rect class="cls-11" x="13.91" y="289.34" width="25.37" height="28.67"/><path class="cls-11" d="M63.7,289.34v.88a3.24,3.24,0,0,0,3.24,3.24h7.23a3.24,3.24,0,0,0,3.24-3.24v-.88Z"/><g class="cls-16"><path d="M97,300.94H46.07a.83.83,0,0,1,0-1.65H97a.83.83,0,1,1,0,1.65Z"/></g><g class="cls-16"><path d="M97,305.57H46.07a.83.83,0,0,1,0-1.65H97a.83.83,0,1,1,0,1.65Z"/></g><g class="cls-16"><path d="M97,310.19H46.07a.82.82,0,0,1,0-1.64H97a.82.82,0,1,1,0,1.64Z"/></g></g></g></svg>