<?xml version="1.0" encoding="iso-8859-1"?>
<!-- Generator: Adobe Illustrator 19.0.0, SVG Export Plug-In . SVG Version: 6.00 Build 0)  -->
<svg xmlns="http://www.w3.org/2000/svg" xmlns:xlink="http://www.w3.org/1999/xlink" version="1.1" id="Capa_1" x="0px" y="0px" viewBox="0 0 469.333 469.333" style="enable-background:new 0 0 469.333 469.333;" xml:space="preserve" width="512px" height="512px">
<g>
	<g>
		<g>
			<path d="M230.167,393.667c1.417,0.667,2.958,1,4.5,1s3.083-0.333,4.5-1c79.5-37.021,91.5-64.448,91.5-139.521V198.49     c0-4.615-2.979-8.708-7.354-10.146l-85.333-27.823c-2.167-0.688-4.458-0.688-6.625,0l-85.333,27.823     c-4.375,1.438-7.354,5.531-7.354,10.146v55.656C138.667,329.219,150.666,356.646,230.167,393.667z M181.333,229.458     c0-4.615,2.979-8.708,7.354-10.146l42.667-13.917c3.271-1.052,6.813-0.479,9.583,1.51c2.75,2.01,4.396,5.219,4.396,8.635v51.125     h32c2.917,0,5.708,1.198,7.729,3.313c2,2.115,3.063,4.958,2.917,7.875c-1.688,34.917-12.104,49.583-48.437,68.219     c-1.542,0.792-3.208,1.177-4.875,1.177c-1.938,0-3.854-0.521-5.563-1.563c-3.167-1.938-5.104-5.385-5.104-9.104V288h-32     c-5.896,0-10.667-4.771-10.667-10.667V229.458z" fill="#FFFFFF"/>
			<path d="M426.667,0h-384C19.146,0,0,19.135,0,42.667v384c0,23.531,19.146,42.667,42.667,42.667h384     c23.521,0,42.667-19.135,42.667-42.667v-384C469.333,19.135,450.188,0,426.667,0z M138.667,42.667     c5.891,0,10.667,4.775,10.667,10.667c0,5.891-4.776,10.667-10.667,10.667S128,59.224,128,53.333     C128,47.441,132.776,42.667,138.667,42.667z M96,42.667c5.891,0,10.667,4.775,10.667,10.667C106.667,59.224,101.891,64,96,64     s-10.667-4.776-10.667-10.667C85.333,47.441,90.109,42.667,96,42.667z M53.333,42.667C59.224,42.667,64,47.441,64,53.333     C64,59.224,59.224,64,53.333,64s-10.667-4.776-10.667-10.667C42.667,47.441,47.443,42.667,53.333,42.667z M426.667,426.667h-384     v-320h384V426.667z" fill="#FFFFFF"/>
		</g>
	</g>
</g>
<g>
</g>
<g>
</g>
<g>
</g>
<g>
</g>
<g>
</g>
<g>
</g>
<g>
</g>
<g>
</g>
<g>
</g>
<g>
</g>
<g>
</g>
<g>
</g>
<g>
</g>
<g>
</g>
<g>
</g>
</svg>
